<?xml version="1.0" standalone="no"?>
<!DOCTYPE svg PUBLIC "-//W3C//DTD SVG 20010904//EN"
 "http://www.w3.org/TR/2001/REC-SVG-20010904/DTD/svg10.dtd">
<svg version="1.0" xmlns="http://www.w3.org/2000/svg"
 width="284.000000pt" height="284.000000pt" viewBox="0 0 284.000000 284.000000"
 preserveAspectRatio="xMidYMid meet">
<metadata>
Created by potrace 1.11, written by Peter Selinger 2001-2013
</metadata>
<g transform="translate(0.000000,284.000000) scale(0.100000,-0.100000)"
fill="#000000" stroke="none">
<path d="M2483 2800 c-171 -58 -237 -106 -487 -353 -127 -126 -194 -186 -205
-182 -9 2 -104 25 -211 51 -107 25 -343 82 -525 125 -421 101 -589 141 -595
141 -29 2 -58 -22 -184 -148 -100 -100 -146 -153 -146 -168 0 -38 8 -44 170
-133 302 -166 778 -427 828 -455 l63 -35 -261 -262 c-144 -143 -264 -261 -268
-261 -4 0 -96 25 -205 55 -143 39 -204 52 -220 46 -30 -12 -237 -224 -237
-244 0 -8 3 -23 6 -32 4 -9 124 -104 268 -212 l261 -196 193 -256 c106 -141
200 -262 209 -269 9 -6 26 -12 36 -12 23 0 234 203 247 237 7 15 -7 79 -47
226 l-56 203 263 263 c144 144 264 260 265 259 1 -2 129 -235 285 -518 155
-283 289 -521 298 -528 9 -6 25 -12 35 -12 30 0 306 210 314 239 5 22 -22 153
-136 646 -21 94 -67 292 -101 440 -35 149 -66 286 -71 305 -5 19 -9 38 -9 41
0 4 88 96 195 204 189 190 247 260 295 354 117 232 100 414 -45 456 -71 21
-128 17 -222 -15z"/>
</g>
</svg>
